<svg version="1.1" id="Layer_1" xmlns="http://www.w3.org/2000/svg" xmlns:xlink="http://www.w3.org/1999/xlink" x="0px" y="0px"
	 width="100%" viewBox="0 0 2000 413" enable-background="new 0 0 2000 413" xml:space="preserve">
<path fill="#4C6971" opacity="1.000000" stroke="none" 
	d="
M1358.000000,414.000000 
	C905.333313,414.000000 453.166656,414.000000 1.000000,414.000000 
	C1.000000,276.333344 1.000000,138.666672 1.000000,1.000000 
	C667.666687,1.000000 1334.333374,1.000000 2001.000000,1.000000 
	C2001.000000,138.666672 2001.000000,276.333344 2001.000000,414.000000 
	C1786.833374,414.000000 1572.666626,414.000000 1358.000000,414.000000 
M239.505371,6.080577 
	C239.505371,6.080577 239.020767,6.170977 238.542755,6.018517 
	C238.379868,5.980543 238.216995,5.942569 237.504135,5.242028 
	C229.335983,5.216944 221.167847,5.191859 212.127960,5.043185 
	C203.093323,6.084048 194.058670,7.124910 184.260788,8.329794 
	C175.168030,10.941857 166.075256,13.553920 156.226395,16.077974 
	C146.449493,20.368027 136.672577,24.658081 126.189171,29.024275 
	C119.414246,33.341110 112.639328,37.657944 105.256287,42.265160 
	C98.128586,48.166878 91.000877,54.068592 83.282219,60.261478 
	C72.616623,70.480865 62.754761,81.377556 54.313171,94.323158 
	C48.636951,104.663643 42.398701,114.740509 37.399673,125.398621 
	C26.464249,148.713333 21.153526,173.529526 20.068451,199.187256 
	C19.320276,216.878693 21.009821,234.384216 24.897278,251.735779 
	C30.415039,276.364166 39.840790,299.215057 54.311787,320.644989 
	C54.697403,320.797058 55.083023,320.949097 55.179573,321.386230 
	C55.179573,321.386230 55.380066,321.739227 55.768028,322.294006 
	C63.339855,334.120117 72.417946,344.659790 83.182442,354.632904 
	C89.746696,360.100372 96.310951,365.567841 103.086174,371.494720 
	C103.381393,371.607971 103.676605,371.721191 104.464226,371.989197 
	C104.630630,372.032928 104.797028,372.076691 105.273041,372.725372 
	C112.481735,377.168640 119.690437,381.611908 127.281303,386.651733 
	C135.479248,390.112823 143.677200,393.573914 152.308578,397.652374 
	C161.172852,400.119751 170.037125,402.587128 179.388977,405.693878 
	C188.899063,406.824280 198.409149,407.954681 208.471222,409.756287 
	C216.638260,409.785461 224.805283,409.814636 233.828110,409.972015 
	C243.882248,408.593018 253.936371,407.213989 264.775818,405.916931 
	C273.518005,403.226044 282.260223,400.535156 291.755371,397.931183 
	C299.191895,394.644897 306.628418,391.358582 314.539978,387.973877 
	C314.539978,387.973877 315.000732,387.819366 315.511505,387.825836 
	C315.712555,387.560638 315.913574,387.295471 316.744934,386.733459 
	C324.179321,382.192932 331.613678,377.652405 339.671295,372.812225 
	C345.127686,368.248657 350.584076,363.685089 356.659729,358.819672 
	C365.121857,349.916229 373.584015,341.012787 382.637878,331.752808 
	C388.690857,322.473907 394.743805,313.195007 400.985931,303.195160 
	C403.288208,298.591980 405.778900,294.072235 407.860870,289.371490 
	C418.125458,266.195343 423.861938,241.891388 424.889648,216.592300 
	C425.257812,207.528824 424.412598,198.409485 423.987915,189.321869 
	C423.326019,175.158722 420.800049,161.269821 415.947937,147.988480 
	C411.386871,135.503830 405.888397,123.361641 400.705170,110.385498 
	C394.487396,101.222557 388.269623,92.059616 381.766357,82.282928 
	C379.425690,79.344131 377.340881,76.147583 374.692627,73.518585 
	C368.621277,67.491371 362.275024,61.741093 355.953125,55.190510 
	C350.316101,50.754169 344.679047,46.317829 338.684662,41.303383 
	C330.469421,36.493145 322.254150,31.682909 313.658295,26.284672 
	C305.105621,22.911987 296.552948,19.539303 287.331909,15.813609 
	C278.569183,13.506230 269.806488,11.198852 260.542816,8.252935 
	C253.691986,7.558312 246.841171,6.863688 239.505371,6.080577 
M621.114990,181.358856 
	C621.531494,181.877106 621.999695,182.362152 622.357117,182.918350 
	C646.577637,220.610153 671.093079,258.118530 694.769104,296.149353 
	C700.101929,304.715546 705.714050,308.303375 715.677429,307.195496 
	C724.180481,306.249939 732.871948,307.000000 741.689453,307.000000 
	C741.689453,216.741516 741.689453,127.173912 741.689453,37.454231 
	C728.687500,37.454231 716.000549,37.454231 702.817627,37.454231 
	C702.817627,105.758255 702.817627,173.609604 702.817627,242.020432 
	C701.914978,241.189926 701.476746,240.924042 701.226257,240.536728 
	C680.742126,208.870544 660.254822,177.206360 639.806702,145.516937 
	C617.389587,110.776146 594.984436,76.027489 572.656555,41.229351 
	C570.682861,38.153313 568.530884,36.761078 564.666870,36.889263 
	C554.678101,37.220631 544.670898,36.987495 534.671204,37.012535 
	C532.907471,37.016953 531.144043,37.179741 529.371887,37.269825 
	C529.371887,127.381668 529.371887,216.949417 529.371887,306.661163 
	C542.648376,306.661163 555.550903,306.661163 569.147217,306.661163 
	C569.147217,238.386093 569.147217,170.446121 569.147217,102.506126 
	C573.765930,107.795815 577.368469,113.292961 580.936401,118.812500 
	C594.260986,139.425491 607.574158,160.045822 621.114990,181.358856 
M1611.659424,111.000206 
	C1587.959595,112.038589 1568.814331,122.251419 1553.262573,140.805862 
	C1552.321655,131.474731 1551.466431,122.993805 1550.559692,114.001320 
	C1540.886108,114.001320 1531.427490,113.988701 1521.968872,114.014618 
	C1520.512695,114.018608 1519.057007,114.199860 1517.431030,114.310738 
	C1517.431030,204.280457 1517.431030,293.957825 1517.431030,383.603638 
	C1529.768555,383.603638 1541.670654,383.603638 1554.082764,383.603638 
	C1554.082764,349.823395 1554.082764,316.435181 1554.082764,283.046936 
	C1554.532349,282.753937 1554.982056,282.460938 1555.431641,282.167938 
	C1557.368164,284.359131 1559.230103,286.622101 1561.255005,288.728424 
	C1568.157227,295.907898 1576.700928,300.521851 1585.869629,304.036896 
	C1601.432373,310.003326 1617.528564,310.036560 1633.775024,308.037933 
	C1650.759888,305.948547 1665.423828,298.669250 1677.495728,286.840546 
	C1696.926514,267.800964 1704.841187,243.558273 1705.759033,217.087540 
	C1706.173462,205.133850 1705.236572,192.822250 1702.730347,181.141266 
	C1697.007812,154.470322 1682.883301,133.224823 1658.211426,120.093460 
	C1643.963623,112.510170 1628.552612,110.359360 1611.659424,111.000206 
M773.989624,190.512756 
	C773.667175,192.125229 773.104919,193.730865 773.058716,195.351196 
	C772.523987,214.103180 772.546753,232.809616 780.025146,250.538910 
	C786.795532,266.589752 796.168701,280.648712 810.419678,291.210938 
	C832.784363,307.786652 857.934875,311.603577 884.764832,308.018341 
	C908.358765,304.865540 927.947754,294.282776 942.785278,275.557037 
	C946.740417,270.565430 949.743103,264.819061 953.463318,258.979248 
	C942.676819,255.307968 933.143982,252.210922 923.737976,248.767654 
	C921.085083,247.796478 919.860352,248.232208 918.653992,250.667816 
	C914.742859,258.564331 908.038818,263.610321 900.556946,267.748077 
	C888.866333,274.213409 876.191467,275.544800 863.093567,275.054871 
	C854.803345,274.744751 846.988525,272.615448 840.092712,268.363037 
	C823.913940,258.386169 815.000000,243.655182 813.170166,223.957550 
	C860.757202,223.957550 908.141418,223.957550 955.601074,223.957550 
	C957.574585,206.634918 957.959778,190.155228 953.157654,173.730072 
	C945.081665,146.107483 927.824768,127.175377 901.025208,116.949539 
	C884.929688,110.807983 868.303284,109.769608 851.284058,111.931786 
	C833.918762,114.137917 818.516479,120.736710 805.426697,132.192719 
	C788.014282,147.431854 777.682678,166.763062 773.989624,190.512756 
M1488.041992,219.755249 
	C1488.360718,217.807343 1488.959961,215.858521 1488.953735,213.911636 
	C1488.903320,198.151321 1487.194458,182.687302 1481.099609,167.919312 
	C1469.813721,140.573502 1449.522339,123.393837 1421.518555,115.007729 
	C1404.253174,109.837425 1386.674683,109.600777 1369.067261,113.051682 
	C1351.710205,116.453545 1336.251221,124.020576 1323.436157,136.190750 
	C1302.687500,155.894943 1294.769653,181.159393 1294.190186,208.945160 
	C1293.996094,218.254715 1295.272949,227.763382 1297.166138,236.914413 
	C1301.695801,258.809662 1312.452759,277.218201 1330.556274,290.769073 
	C1354.766235,308.890900 1382.484253,312.274231 1411.207153,307.576019 
	C1433.421265,303.942444 1452.455322,293.301147 1466.994629,275.522919 
	C1480.059937,259.546875 1486.829468,241.193375 1488.041992,219.755249 
M995.883057,280.634674 
	C1002.648743,291.050781 1011.928162,298.188354 1023.281494,303.283447 
	C1035.509399,308.770996 1048.204346,309.180450 1061.163330,309.038025 
	C1073.413818,308.903351 1084.612549,305.377472 1094.708252,298.680817 
	C1099.965332,295.193726 1104.642090,290.831787 1109.997559,286.530518 
	C1110.870117,293.472015 1111.686646,299.967224 1112.511841,306.532288 
	C1124.005859,306.532288 1135.360718,306.532288 1146.581543,306.532288 
	C1146.581543,242.171890 1146.581543,178.280029 1146.581543,114.382607 
	C1133.925171,114.382607 1121.690918,114.382607 1109.000000,114.382607 
	C1109.000000,116.729897 1109.000000,118.698158 1109.000000,120.666428 
	C1109.000000,152.991913 1109.052734,185.317566 1108.954346,217.642746 
	C1108.935181,223.921234 1108.892456,230.291901 1107.868530,236.455215 
	C1105.938843,248.069702 1101.355225,258.298920 1091.683716,266.013672 
	C1081.635376,274.028809 1070.241943,275.653809 1058.081421,274.990112 
	C1043.807983,274.211151 1032.815552,267.955414 1026.081909,255.129196 
	C1020.742798,244.959045 1019.243652,233.723495 1019.127808,222.538193 
	C1018.775635,188.550095 1019.000000,154.556015 1018.999878,120.564270 
	C1018.999878,118.485443 1018.999939,116.406616 1018.999939,114.408157 
	C1006.205688,114.408157 994.303833,114.408157 982.535645,114.408157 
	C982.305603,115.124565 982.116943,115.435326 982.118958,115.744812 
	C982.398926,158.347366 982.440796,200.953964 983.135925,243.549881 
	C983.351257,256.744873 988.025879,268.993225 995.883057,280.634674 
M1931.000854,237.500977 
	C1924.626953,228.326508 1918.253174,219.152054 1911.968628,210.106293 
	C1934.264160,178.070801 1956.316162,146.385300 1978.854614,114.000610 
	C1965.193726,114.000610 1952.545532,114.156151 1939.905884,113.895378 
	C1936.590088,113.826958 1934.760620,115.070747 1933.111938,117.584824 
	C1924.349854,130.946518 1915.553833,144.286255 1906.707764,157.592453 
	C1901.765503,165.026321 1896.702881,172.380203 1891.672974,179.801926 
	C1890.926880,179.211151 1890.591064,179.054810 1890.416626,178.791550 
	C1876.851074,158.336029 1863.346924,137.839340 1849.651123,117.471619 
	C1848.567505,115.860153 1846.182495,114.199318 1844.364136,114.155975 
	C1832.204712,113.866127 1820.034912,113.996880 1807.868652,114.037506 
	C1806.987671,114.040443 1806.108032,114.410179 1804.840454,114.697014 
	C1809.745972,121.904739 1814.321411,128.729782 1819.000000,135.483322 
	C1835.599121,159.444382 1852.212158,183.395905 1868.892944,207.300156 
	C1870.284424,209.294373 1870.747559,210.534073 1868.946411,212.771851 
	C1865.343018,217.249359 1862.291504,222.172012 1859.027832,226.921646 
	C1841.960693,251.758987 1824.897949,276.599365 1807.836304,301.440399 
	C1806.798584,302.951080 1805.783081,304.477020 1804.109619,306.955048 
	C1818.682373,306.955048 1831.961182,307.032806 1845.235718,306.828796 
	C1846.494385,306.809479 1848.060791,305.254211 1848.910156,304.017609 
	C1852.079468,299.403717 1854.940308,294.579590 1858.041382,289.917084 
	C1869.068970,273.336670 1880.147949,256.790436 1891.478027,239.825790 
	C1892.529053,241.214249 1893.361572,242.200684 1894.071289,243.268723 
	C1907.475464,263.441559 1920.841064,283.640198 1934.312744,303.767792 
	C1935.208862,305.106598 1936.872925,306.817657 1938.205933,306.840637 
	C1951.469604,307.069519 1964.738892,306.979431 1979.237549,306.979431 
	C1975.778320,301.918274 1972.969482,297.753754 1970.105347,293.627655 
	C1957.239746,275.094391 1944.358398,256.571960 1931.000854,237.500977 
M1222.000000,243.500000 
	C1222.668823,225.447952 1221.728027,207.147903 1224.460327,189.413788 
	C1227.178101,171.773697 1237.673462,158.089706 1255.073853,150.852600 
	C1266.024902,146.297806 1277.120850,145.973846 1288.619385,148.791336 
	C1288.619385,136.816696 1288.619385,125.085350 1288.619385,113.562820 
	C1275.768921,110.415947 1263.531372,111.693550 1251.753296,116.243401 
	C1240.117798,120.738167 1230.135986,127.942123 1221.314575,138.480713 
	C1220.799561,131.195068 1220.358521,125.460953 1220.001343,119.721596 
	C1219.768433,115.976280 1218.744751,113.505539 1214.103638,113.912033 
	C1209.474121,114.317490 1204.781372,114.000206 1200.116333,114.000038 
	C1195.193359,113.999870 1190.270386,114.000000 1185.368042,114.000000 
	C1185.368042,178.736145 1185.368042,242.622986 1185.368042,306.669128 
	C1197.637817,306.669128 1209.537476,306.669128 1222.000000,306.669128 
	C1222.000000,285.728912 1222.000000,265.114471 1222.000000,243.500000 
M1777.000000,203.500000 
	C1777.000000,173.767181 1777.000000,144.034363 1777.000000,114.421890 
	C1763.844482,114.421890 1751.609985,114.421890 1739.369873,114.421890 
	C1739.369873,178.734192 1739.369873,242.623917 1739.369873,306.666504 
	C1751.975464,306.666504 1764.208984,306.666504 1777.000000,306.666504 
	C1777.000000,272.390594 1777.000000,238.445297 1777.000000,203.500000 
M1746.562012,78.168770 
	C1747.776611,78.653587 1748.959229,79.250641 1750.210693,79.605751 
	C1761.669434,82.857323 1773.991455,78.284721 1779.270752,69.452164 
	C1785.530640,58.979126 1783.131470,47.142685 1776.879517,39.455959 
	C1770.537842,31.658619 1758.513672,29.138994 1747.906860,33.098499 
	C1739.821899,36.116596 1732.072510,48.611874 1733.106079,56.897736 
	C1734.218506,65.813011 1737.444336,73.429344 1746.562012,78.168770 
z"/>
<path fill="#000000" opacity="1.000000" stroke="none" 
	d="
M621.003296,181.011139 
	C607.574158,160.045822 594.260986,139.425491 580.936401,118.812500 
	C577.368469,113.292961 573.765930,107.795815 569.147217,102.506126 
	C569.147217,170.446121 569.147217,238.386093 569.147217,306.661163 
	C555.550903,306.661163 542.648376,306.661163 529.371887,306.661163 
	C529.371887,216.949417 529.371887,127.381668 529.371887,37.269825 
	C531.144043,37.179741 532.907471,37.016953 534.671204,37.012535 
	C544.670898,36.987495 554.678101,37.220631 564.666870,36.889263 
	C568.530884,36.761078 570.682861,38.153313 572.656555,41.229351 
	C594.984436,76.027489 617.389587,110.776146 639.806702,145.516937 
	C660.254822,177.206360 680.742126,208.870544 701.226257,240.536728 
	C701.476746,240.924042 701.914978,241.189926 702.817627,242.020432 
	C702.817627,173.609604 702.817627,105.758255 702.817627,37.454231 
	C716.000549,37.454231 728.687500,37.454231 741.689453,37.454231 
	C741.689453,127.173912 741.689453,216.741516 741.689453,307.000000 
	C732.871948,307.000000 724.180481,306.249939 715.677429,307.195496 
	C705.714050,308.303375 700.101929,304.715546 694.769104,296.149353 
	C671.093079,258.118530 646.577637,220.610153 622.357117,182.918350 
	C621.999695,182.362152 621.531494,181.877106 621.003296,181.011139 
z"/>
<path fill="#000000" opacity="1.000000" stroke="none" 
	d="
M1612.141602,111.000122 
	C1628.552612,110.359360 1643.963623,112.510170 1658.211426,120.093460 
	C1682.883301,133.224823 1697.007812,154.470322 1702.730347,181.141266 
	C1705.236572,192.822250 1706.173462,205.133850 1705.759033,217.087540 
	C1704.841187,243.558273 1696.926514,267.800964 1677.495728,286.840546 
	C1665.423828,298.669250 1650.759888,305.948547 1633.775024,308.037933 
	C1617.528564,310.036560 1601.432373,310.003326 1585.869629,304.036896 
	C1576.700928,300.521851 1568.157227,295.907898 1561.255005,288.728424 
	C1559.230103,286.622101 1557.368164,284.359131 1555.431641,282.167938 
	C1554.982056,282.460938 1554.532349,282.753937 1554.082764,283.046936 
	C1554.082764,316.435181 1554.082764,349.823395 1554.082764,383.603638 
	C1541.670654,383.603638 1529.768555,383.603638 1517.431030,383.603638 
	C1517.431030,293.957825 1517.431030,204.280457 1517.431030,114.310738 
	C1519.057007,114.199860 1520.512695,114.018608 1521.968872,114.014618 
	C1531.427490,113.988701 1540.886108,114.001320 1550.559692,114.001320 
	C1551.466431,122.993805 1552.321655,131.474731 1553.262573,140.805862 
	C1568.814331,122.251419 1587.959595,112.038589 1612.141602,111.000122 
M1561.479492,244.972794 
	C1564.232910,249.061646 1566.604126,253.481583 1569.808472,257.179535 
	C1581.031982,270.131500 1595.378418,275.358765 1612.513428,275.156860 
	C1634.661133,274.895844 1652.489258,260.048828 1659.827515,241.774963 
	C1666.086060,226.189575 1667.270020,210.029739 1664.201294,193.261002 
	C1660.369873,172.325058 1644.433594,149.127045 1618.610718,145.505722 
	C1599.839966,142.873352 1577.267944,150.813232 1566.785889,166.535828 
	C1550.226074,191.374725 1550.073853,217.449814 1561.479492,244.972794 
z"/>
<path fill="#000000" opacity="1.000000" stroke="none" 
	d="
M773.998169,190.069702 
	C777.682678,166.763062 788.014282,147.431854 805.426697,132.192719 
	C818.516479,120.736710 833.918762,114.137917 851.284058,111.931786 
	C868.303284,109.769608 884.929688,110.807983 901.025208,116.949539 
	C927.824768,127.175377 945.081665,146.107483 953.157654,173.730072 
	C957.959778,190.155228 957.574585,206.634918 955.601074,223.957550 
	C908.141418,223.957550 860.757202,223.957550 813.170166,223.957550 
	C815.000000,243.655182 823.913940,258.386169 840.092712,268.363037 
	C846.988525,272.615448 854.803345,274.744751 863.093567,275.054871 
	C876.191467,275.544800 888.866333,274.213409 900.556946,267.748077 
	C908.038818,263.610321 914.742859,258.564331 918.653992,250.667816 
	C919.860352,248.232208 921.085083,247.796478 923.737976,248.767654 
	C933.143982,252.210922 942.676819,255.307968 953.463318,258.979248 
	C949.743103,264.819061 946.740417,270.565430 942.785278,275.557037 
	C927.947754,294.282776 908.358765,304.865540 884.764832,308.018341 
	C857.934875,311.603577 832.784363,307.786652 810.419678,291.210938 
	C796.168701,280.648712 786.795532,266.589752 780.025146,250.538910 
	C772.546753,232.809616 772.523987,214.103180 773.058716,195.351196 
	C773.104919,193.730865 773.667175,192.125229 773.998169,190.069702 
M878.500000,192.000000 
	C890.904785,192.000000 903.309570,192.000000 916.162415,192.000000 
	C915.437012,174.117096 907.835938,160.862183 893.454407,152.424393 
	C876.114502,142.250870 857.767029,141.033142 840.026428,151.687057 
	C825.142273,160.625580 816.783020,174.231339 813.837280,192.000000 
	C835.602844,192.000000 856.551392,192.000000 878.500000,192.000000 
z"/>
<path fill="#000000" opacity="1.000000" stroke="none" 
	d="
M1488.026855,220.218201 
	C1486.829468,241.193375 1480.059937,259.546875 1466.994629,275.522919 
	C1452.455322,293.301147 1433.421265,303.942444 1411.207153,307.576019 
	C1382.484253,312.274231 1354.766235,308.890900 1330.556274,290.769073 
	C1312.452759,277.218201 1301.695801,258.809662 1297.166138,236.914413 
	C1295.272949,227.763382 1293.996094,218.254715 1294.190186,208.945160 
	C1294.769653,181.159393 1302.687500,155.894943 1323.436157,136.190750 
	C1336.251221,124.020576 1351.710205,116.453545 1369.067261,113.051682 
	C1386.674683,109.600777 1404.253174,109.837425 1421.518555,115.007729 
	C1449.522339,123.393837 1469.813721,140.573502 1481.099609,167.919312 
	C1487.194458,182.687302 1488.903320,198.151321 1488.953735,213.911636 
	C1488.959961,215.858521 1488.360718,217.807343 1488.026855,220.218201 
M1351.491455,161.007477 
	C1344.365356,168.404663 1339.667603,177.160522 1337.002686,187.034317 
	C1333.100464,201.492599 1333.060913,216.122101 1336.174561,230.629745 
	C1339.001587,243.803528 1345.294800,255.107407 1356.102051,263.748474 
	C1367.309326,272.709290 1380.018921,275.860535 1394.051514,275.011230 
	C1411.559204,273.951599 1425.779541,266.645020 1436.162109,252.478882 
	C1447.811279,236.584488 1450.360474,218.662827 1448.192871,199.402039 
	C1446.302856,182.607101 1440.324585,168.404434 1427.045166,157.480713 
	C1406.528198,140.603348 1372.225708,139.986633 1351.491455,161.007477 
z"/>
<path fill="#000000" opacity="1.000000" stroke="none" 
	d="
M995.674927,280.332275 
	C988.025879,268.993225 983.351257,256.744873 983.135925,243.549881 
	C982.440796,200.953964 982.398926,158.347366 982.118958,115.744812 
	C982.116943,115.435326 982.305603,115.124565 982.535645,114.408157 
	C994.303833,114.408157 1006.205688,114.408157 1018.999939,114.408157 
	C1018.999939,116.406616 1018.999878,118.485443 1018.999878,120.564270 
	C1019.000000,154.556015 1018.775635,188.550095 1019.127808,222.538193 
	C1019.243652,233.723495 1020.742798,244.959045 1026.081909,255.129196 
	C1032.815552,267.955414 1043.807983,274.211151 1058.081421,274.990112 
	C1070.241943,275.653809 1081.635376,274.028809 1091.683716,266.013672 
	C1101.355225,258.298920 1105.938843,248.069702 1107.868530,236.455215 
	C1108.892456,230.291901 1108.935181,223.921234 1108.954346,217.642746 
	C1109.052734,185.317566 1109.000000,152.991913 1109.000000,120.666428 
	C1109.000000,118.698158 1109.000000,116.729897 1109.000000,114.382607 
	C1121.690918,114.382607 1133.925171,114.382607 1146.581543,114.382607 
	C1146.581543,178.280029 1146.581543,242.171890 1146.581543,306.532288 
	C1135.360718,306.532288 1124.005859,306.532288 1112.511841,306.532288 
	C1111.686646,299.967224 1110.870117,293.472015 1109.997559,286.530518 
	C1104.642090,290.831787 1099.965332,295.193726 1094.708252,298.680817 
	C1084.612549,305.377472 1073.413818,308.903351 1061.163330,309.038025 
	C1048.204346,309.180450 1035.509399,308.770996 1023.281494,303.283447 
	C1011.928162,298.188354 1002.648743,291.050781 995.674927,280.332275 
z"/>
<path fill="#000000" opacity="1.000000" stroke="none" 
	d="
M1931.241821,237.773315 
	C1944.358398,256.571960 1957.239746,275.094391 1970.105347,293.627655 
	C1972.969482,297.753754 1975.778320,301.918274 1979.237549,306.979431 
	C1964.738892,306.979431 1951.469604,307.069519 1938.205933,306.840637 
	C1936.872925,306.817657 1935.208862,305.106598 1934.312744,303.767792 
	C1920.841064,283.640198 1907.475464,263.441559 1894.071289,243.268723 
	C1893.361572,242.200684 1892.529053,241.214249 1891.478027,239.825790 
	C1880.147949,256.790436 1869.068970,273.336670 1858.041382,289.917084 
	C1854.940308,294.579590 1852.079468,299.403717 1848.910156,304.017609 
	C1848.060791,305.254211 1846.494385,306.809479 1845.235718,306.828796 
	C1831.961182,307.032806 1818.682373,306.955048 1804.109619,306.955048 
	C1805.783081,304.477020 1806.798584,302.951080 1807.836304,301.440399 
	C1824.897949,276.599365 1841.960693,251.758987 1859.027832,226.921646 
	C1862.291504,222.172012 1865.343018,217.249359 1868.946411,212.771851 
	C1870.747559,210.534073 1870.284424,209.294373 1868.892944,207.300156 
	C1852.212158,183.395905 1835.599121,159.444382 1819.000000,135.483322 
	C1814.321411,128.729782 1809.745972,121.904739 1804.840454,114.697014 
	C1806.108032,114.410179 1806.987671,114.040443 1807.868652,114.037506 
	C1820.034912,113.996880 1832.204712,113.866127 1844.364136,114.155975 
	C1846.182495,114.199318 1848.567505,115.860153 1849.651123,117.471619 
	C1863.346924,137.839340 1876.851074,158.336029 1890.416626,178.791550 
	C1890.591064,179.054810 1890.926880,179.211151 1891.672974,179.801926 
	C1896.702881,172.380203 1901.765503,165.026321 1906.707764,157.592453 
	C1915.553833,144.286255 1924.349854,130.946518 1933.111938,117.584824 
	C1934.760620,115.070747 1936.590088,113.826958 1939.905884,113.895378 
	C1952.545532,114.156151 1965.193726,114.000610 1978.854614,114.000610 
	C1956.316162,146.385300 1934.264160,178.070801 1911.968628,210.106293 
	C1918.253174,219.152054 1924.626953,228.326508 1931.241821,237.773315 
z"/>
<path fill="#000000" opacity="1.000000" stroke="none" 
	d="
M1222.000000,244.000000 
	C1222.000000,265.114471 1222.000000,285.728912 1222.000000,306.669128 
	C1209.537476,306.669128 1197.637817,306.669128 1185.368042,306.669128 
	C1185.368042,242.622986 1185.368042,178.736145 1185.368042,114.000000 
	C1190.270386,114.000000 1195.193359,113.999870 1200.116333,114.000038 
	C1204.781372,114.000206 1209.474121,114.317490 1214.103638,113.912033 
	C1218.744751,113.505539 1219.768433,115.976280 1220.001343,119.721596 
	C1220.358521,125.460953 1220.799561,131.195068 1221.314575,138.480713 
	C1230.135986,127.942123 1240.117798,120.738167 1251.753296,116.243401 
	C1263.531372,111.693550 1275.768921,110.415947 1288.619385,113.562820 
	C1288.619385,125.085350 1288.619385,136.816696 1288.619385,148.791336 
	C1277.120850,145.973846 1266.024902,146.297806 1255.073853,150.852600 
	C1237.673462,158.089706 1227.178101,171.773697 1224.460327,189.413788 
	C1221.728027,207.147903 1222.668823,225.447952 1222.000000,244.000000 
z"/>
<path fill="#FFA995" opacity="1.000000" stroke="none" 
	d="
M126.895668,28.948133 
	C136.672577,24.658081 146.449493,20.368027 156.510330,16.517864 
	C156.530106,19.767559 156.040863,22.576984 156.036163,25.387222 
	C155.981995,57.702820 155.974014,90.018600 156.047119,122.334122 
	C156.053802,125.293762 156.704391,128.251938 156.884521,131.498840 
	C155.721573,133.508713 154.705109,135.216690 153.742447,136.954468 
	C145.175980,152.418747 140.890503,168.646698 143.919754,186.503799 
	C145.729782,197.173737 150.206573,206.627899 155.102905,216.125229 
	C154.194031,219.200546 153.079926,222.029053 153.077103,224.858673 
	C153.021164,280.898407 153.102798,336.938263 153.087463,392.978088 
	C153.087097,394.330475 152.296921,395.682709 151.875137,397.035004 
	C143.677200,393.573914 135.479248,390.112823 127.290527,386.022400 
	C127.866249,381.824280 128.921066,378.256317 128.926712,374.686676 
	C129.026962,311.239777 128.999939,247.792694 128.999939,184.345642 
	C128.999954,135.886093 129.040848,87.426422 128.908615,38.967232 
	C128.899490,35.625725 127.596794,32.287750 126.895668,28.948133 
z"/>
<path fill="#FF98C2" opacity="1.000000" stroke="none" 
	d="
M314.064941,388.072296 
	C306.628418,391.358582 299.191895,394.644897 291.511475,397.504181 
	C291.507385,395.269073 291.955597,393.461151 291.956787,391.652863 
	C291.994263,335.671478 292.021088,279.689972 291.884766,223.708908 
	C291.878326,221.085342 290.357819,218.465500 289.678162,215.507019 
	C300.701202,198.429871 303.161591,180.102341 300.109131,160.720596 
	C298.284943,149.137909 293.108459,138.972351 287.119385,128.876663 
	C287.875366,125.473434 288.909943,122.417313 288.924500,119.356339 
	C289.052765,92.421173 289.070251,65.484833 288.954163,38.549564 
	C288.922028,31.087351 288.333496,23.627535 288.000275,16.166618 
	C296.552948,19.539303 305.105621,22.911987 313.873413,27.011358 
	C314.392395,32.885235 314.958832,38.032299 314.961304,43.179634 
	C315.012573,150.830170 315.018158,258.480713 314.959808,366.131226 
	C314.955841,373.445099 314.376648,380.758606 314.064941,388.072296 
z"/>
<path fill="#FFAB8F" opacity="1.000000" stroke="none" 
	d="
M126.542419,28.986204 
	C127.596794,32.287750 128.899490,35.625725 128.908615,38.967232 
	C129.040848,87.426422 128.999954,135.886093 128.999939,184.345642 
	C128.999939,247.792694 129.026962,311.239777 128.926712,374.686676 
	C128.921066,378.256317 127.866249,381.824280 127.099442,385.724091 
	C119.690437,381.611908 112.481735,377.168640 105.124023,371.946259 
	C104.983444,328.688507 104.894043,286.209595 105.022766,243.731339 
	C105.226555,176.478928 105.576378,109.226944 105.864410,41.974777 
	C112.639328,37.657944 119.414246,33.341110 126.542419,28.986204 
z"/>
<path fill="#000000" opacity="1.000000" stroke="none" 
	d="
M1777.000000,204.000000 
	C1777.000000,238.445297 1777.000000,272.390594 1777.000000,306.666504 
	C1764.208984,306.666504 1751.975464,306.666504 1739.369873,306.666504 
	C1739.369873,242.623917 1739.369873,178.734192 1739.369873,114.421890 
	C1751.609985,114.421890 1763.844482,114.421890 1777.000000,114.421890 
	C1777.000000,144.034363 1777.000000,173.767181 1777.000000,204.000000 
z"/>
<path fill="#FFB082" opacity="1.000000" stroke="none" 
	d="
M54.888287,93.955742 
	C62.754761,81.377556 72.616623,70.480865 83.679749,60.453194 
	C84.051437,64.797600 84.003220,68.950287 84.003021,73.102982 
	C83.998642,163.639145 84.010826,254.175323 83.951965,344.711456 
	C83.949944,347.816742 83.246094,350.921539 82.869370,354.026581 
	C72.417946,344.659790 63.339855,334.120117 55.780743,321.585052 
	C56.191696,318.601807 56.935963,316.327820 56.937954,314.053192 
	C57.000202,242.996078 57.009872,171.938889 56.902615,100.881889 
	C56.899128,98.572174 55.589207,96.264412 54.888287,93.955742 
z"/>
<path fill="#FF94CE" opacity="1.000000" stroke="none" 
	d="
M356.040466,359.121521 
	C350.584076,363.685089 345.127686,368.248657 339.065430,372.751068 
	C334.593719,370.645630 335.004089,366.987976 335.003876,363.495819 
	C335.000397,306.880707 335.000122,250.265579 335.000153,193.650452 
	C335.000183,146.193649 335.014069,98.736855 334.978699,51.280087 
	C334.975861,47.489777 335.023712,43.865990 339.042023,41.881493 
	C344.679047,46.317829 350.316101,50.754169 356.005859,55.972813 
	C356.372406,64.735947 356.952209,72.716560 356.958893,80.697655 
	C357.026367,161.191788 357.040466,241.686035 356.957184,322.180145 
	C356.944427,334.494232 356.360321,346.807739 356.040466,359.121521 
z"/>
<path fill="#FF96C8" opacity="1.000000" stroke="none" 
	d="
M338.863342,41.592438 
	C335.023712,43.865990 334.975861,47.489777 334.978699,51.280087 
	C335.014069,98.736855 335.000183,146.193649 335.000153,193.650452 
	C335.000122,250.265579 335.000397,306.880707 335.003876,363.495819 
	C335.004089,366.987976 334.593719,370.645630 338.753815,372.900879 
	C331.613678,377.652405 324.179321,382.192932 316.236450,387.002014 
	C315.474945,387.439453 315.232544,387.622375 315.000732,387.819366 
	C315.000732,387.819366 314.539978,387.973877 314.302460,388.023071 
	C314.376648,380.758606 314.955841,373.445099 314.959808,366.131226 
	C315.018158,258.480713 315.012573,150.830170 314.961304,43.179634 
	C314.958832,38.032299 314.392395,32.885235 314.063721,27.305359 
	C322.254150,31.682909 330.469421,36.493145 338.863342,41.592438 
z"/>
<path fill="#FFAD89" opacity="1.000000" stroke="none" 
	d="
M83.025902,354.329742 
	C83.246094,350.921539 83.949944,347.816742 83.951965,344.711456 
	C84.010826,254.175323 83.998642,163.639145 84.003021,73.102982 
	C84.003220,68.950287 84.051437,64.797600 83.975235,60.307606 
	C91.000877,54.068592 98.128586,48.166878 105.560349,42.119972 
	C105.576378,109.226944 105.226555,176.478928 105.022766,243.731339 
	C104.894043,286.209595 104.983444,328.688507 104.969223,371.643799 
	C104.797028,372.076691 104.630630,372.032928 104.042007,371.769409 
	C103.380058,371.365936 103.131866,371.194489 102.875198,371.035278 
	C96.310951,365.567841 89.746696,360.100372 83.025902,354.329742 
z"/>
<path fill="#FF92D4" opacity="1.000000" stroke="none" 
	d="
M356.350098,358.970581 
	C356.360321,346.807739 356.944427,334.494232 356.957184,322.180145 
	C357.040466,241.686035 357.026367,161.191788 356.958893,80.697655 
	C356.952209,72.716560 356.372406,64.735947 356.049500,56.316742 
	C362.275024,61.741093 368.621277,67.491371 374.692627,73.518585 
	C377.340881,76.147583 379.425690,79.344131 381.648376,82.852745 
	C380.687744,86.349152 379.133606,89.270798 379.113251,92.203110 
	C378.924713,119.349304 379.000122,146.497330 379.000153,173.644836 
	C379.000214,223.276474 378.945007,272.908325 379.132294,322.539246 
	C379.144348,325.732880 381.031372,328.919464 382.046173,332.109375 
	C373.584015,341.012787 365.121857,349.916229 356.350098,358.970581 
z"/>
<path fill="#FFB37A" opacity="1.000000" stroke="none" 
	d="
M54.600731,94.139450 
	C55.589207,96.264412 56.899128,98.572174 56.902615,100.881889 
	C57.009872,171.938889 57.000202,242.996078 56.937954,314.053192 
	C56.935963,316.327820 56.191696,318.601807 55.586761,321.307678 
	C55.380066,321.739227 55.179573,321.386230 55.096672,321.075989 
	C54.731525,320.516174 54.449280,320.266602 54.167034,320.017059 
	C39.840790,299.215057 30.415039,276.364166 24.897278,251.735779 
	C21.009821,234.384216 19.320276,216.878693 20.068451,199.187256 
	C21.153526,173.529526 26.464249,148.713333 37.399673,125.398621 
	C42.398701,114.740509 48.636951,104.663643 54.600731,94.139450 
z"/>
<path fill="#FF9BBC" opacity="1.000000" stroke="none" 
	d="
M289.542450,215.843918 
	C290.357819,218.465500 291.878326,221.085342 291.884766,223.708908 
	C292.021088,279.689972 291.994263,335.671478 291.956787,391.652863 
	C291.955597,393.461151 291.507385,395.269073 291.134979,397.460724 
	C282.260223,400.535156 273.518005,403.226044 264.385315,405.417816 
	C263.996124,374.013672 264.040405,343.108459 263.941223,312.203766 
	C263.929657,308.592499 263.126221,304.983826 262.773010,300.998199 
	C263.933624,286.977600 265.267761,273.346100 265.978363,259.682159 
	C266.324646,253.023819 267.623474,247.008408 271.568359,241.530869 
	C277.675079,233.051605 283.562195,224.414246 289.542450,215.843918 
z"/>
<path fill="#FFA69D" opacity="1.000000" stroke="none" 
	d="
M152.091858,397.343689 
	C152.296921,395.682709 153.087097,394.330475 153.087463,392.978088 
	C153.102798,336.938263 153.021164,280.898407 153.077103,224.858673 
	C153.079926,222.029053 154.194031,219.200546 155.334061,216.349884 
	C162.196838,225.502777 168.610275,234.614944 174.768753,243.896271 
	C176.284042,246.179932 177.707855,248.959015 177.908356,251.606186 
	C178.846542,263.991272 179.231659,276.417267 180.059235,288.812286 
	C180.330658,292.877838 181.339905,296.894165 181.882019,301.331818 
	C181.501709,304.534210 181.038834,307.337311 181.033371,310.141357 
	C180.978592,338.251373 181.072510,366.361969 180.905548,394.471100 
	C180.884567,398.002747 179.600342,401.526855 178.901398,405.054504 
	C170.037125,402.587128 161.172852,400.119751 152.091858,397.343689 
z"/>
<path fill="#FF90DA" opacity="1.000000" stroke="none" 
	d="
M382.342041,331.931091 
	C381.031372,328.919464 379.144348,325.732880 379.132294,322.539246 
	C378.945007,272.908325 379.000214,223.276474 379.000153,173.644836 
	C379.000122,146.497330 378.924713,119.349304 379.113251,92.203110 
	C379.133606,89.270798 380.687744,86.349152 381.791138,83.159622 
	C388.269623,92.059616 394.487396,101.222557 400.475922,110.865700 
	C399.770996,112.815849 398.881104,114.285301 398.879364,115.755821 
	C398.806641,176.954971 398.799133,238.154236 398.893494,299.353333 
	C398.895844,300.875214 400.134644,302.395203 400.796753,303.916107 
	C394.743805,313.195007 388.690857,322.473907 382.342041,331.931091 
z"/>
<path fill="#FF8EDF" opacity="1.000000" stroke="none" 
	d="
M400.891357,303.555634 
	C400.134644,302.395203 398.895844,300.875214 398.893494,299.353333 
	C398.799133,238.154236 398.806641,176.954971 398.879364,115.755821 
	C398.881104,114.285301 399.770996,112.815849 400.524536,111.207336 
	C405.888397,123.361641 411.386871,135.503830 415.947937,147.988480 
	C420.800049,161.269821 423.326019,175.158722 423.987915,189.321869 
	C424.412598,198.409485 425.257812,207.528824 424.889648,216.592300 
	C423.861938,241.891388 418.125458,266.195343 407.860870,289.371490 
	C405.778900,294.072235 403.288208,298.591980 400.891357,303.555634 
z"/>
<path fill="#FFA69E" opacity="1.000000" stroke="none" 
	d="
M157.055969,131.210785 
	C156.704391,128.251938 156.053802,125.293762 156.047119,122.334122 
	C155.974014,90.018600 155.981995,57.702820 156.036163,25.387222 
	C156.040863,22.576984 156.530106,19.767559 156.888382,16.561871 
	C166.075256,13.553920 175.168030,10.941857 184.772186,8.630953 
	C185.522217,11.727780 185.960495,14.522858 185.968750,17.319206 
	C186.055344,46.671642 186.073166,76.024284 185.842010,105.567123 
	C174.119888,112.059158 164.828461,120.784058 157.055969,131.210785 
z"/>
<path fill="#FF9BBA" opacity="1.000000" stroke="none" 
	d="
M287.666077,15.990114 
	C288.333496,23.627535 288.922028,31.087351 288.954163,38.549564 
	C289.070251,65.484833 289.052765,92.421173 288.924500,119.356339 
	C288.909943,122.417313 287.875366,125.473434 286.850586,128.664444 
	C279.079468,119.467941 270.218567,111.932335 260.101288,105.551849 
	C260.463135,102.008751 260.956238,98.870415 260.964294,95.730827 
	C261.038544,66.784500 261.028961,37.837955 261.043762,8.891472 
	C269.806488,11.198852 278.569183,13.506230 287.666077,15.990114 
z"/>
<path fill="#FF9EB3" opacity="1.000000" stroke="none" 
	d="
M262.689911,301.373932 
	C263.126221,304.983826 263.929657,308.592499 263.941223,312.203766 
	C264.040405,343.108459 263.996124,374.013672 263.992645,405.376831 
	C253.936371,407.213989 243.882248,408.593018 233.538284,409.525269 
	C233.498718,406.439209 233.961716,403.800293 233.966461,401.160522 
	C234.016144,373.506256 233.992462,345.851837 234.349304,318.095215 
	C237.867172,316.026184 241.016037,314.045197 244.186874,312.100037 
	C245.385422,311.364777 246.581985,310.246552 247.869720,310.100800 
	C254.160599,309.388977 259.037811,306.470245 262.689911,301.373932 
z"/>
<path fill="#FFA3A4" opacity="1.000000" stroke="none" 
	d="
M179.145187,405.374176 
	C179.600342,401.526855 180.884567,398.002747 180.905548,394.471100 
	C181.072510,366.361969 180.978592,338.251373 181.033371,310.141357 
	C181.038834,307.337311 181.501709,304.534210 182.124695,301.566986 
	C185.949448,306.683136 190.547913,309.969574 197.111176,310.079651 
	C198.142365,310.096954 199.328461,310.621826 200.155548,311.275574 
	C202.848404,313.404144 205.408005,315.701294 208.016083,318.406372 
	C207.981934,348.947845 207.950577,379.016449 207.919235,409.085083 
	C198.409149,407.954681 188.899063,406.824280 179.145187,405.374176 
z"/>
<path fill="#FFA3A6" opacity="1.000000" stroke="none" 
	d="
M186.110001,105.376869 
	C186.073166,76.024284 186.055344,46.671642 185.968750,17.319206 
	C185.960495,14.522858 185.522217,11.727780 185.153809,8.548943 
	C194.058670,7.124910 203.093323,6.084048 212.625183,5.510458 
	C213.414795,9.456093 213.951767,12.933826 213.960693,16.412914 
	C214.029510,43.243084 213.996033,70.073517 213.608978,97.019402 
	C204.185791,99.882248 195.147888,102.629555 186.110001,105.376869 
z"/>
<path fill="#FFA1AB" opacity="1.000000" stroke="none" 
	d="
M208.195221,409.420685 
	C207.950577,379.016449 207.981934,348.947845 208.438080,318.441833 
	C217.238281,318.068817 225.613678,318.133148 233.989059,318.197479 
	C233.992462,345.851837 234.016144,373.506256 233.966461,401.160522 
	C233.961716,403.800293 233.498718,406.439209 233.110382,409.461182 
	C224.805283,409.814636 216.638260,409.785461 208.195221,409.420685 
z"/>
<path fill="#FFA0AD" opacity="1.000000" stroke="none" 
	d="
M213.994263,96.903862 
	C213.996033,70.073517 214.029510,43.243084 213.960693,16.412914 
	C213.951767,12.933826 213.414795,9.456093 213.061050,5.572252 
	C221.167847,5.191859 229.335983,5.216944 237.769928,6.047246 
	C238.022614,37.512463 238.009491,68.172462 237.610794,98.724556 
	C229.481567,98.045723 221.737915,97.474792 213.994263,96.903862 
z"/>
<path fill="#FF9EB3" opacity="1.000000" stroke="none" 
	d="
M237.996368,98.832458 
	C238.009491,68.172462 238.022614,37.512463 238.044922,6.378529 
	C238.216995,5.942569 238.379868,5.980543 238.902008,6.120566 
	C239.261246,6.222617 239.628174,6.232328 239.628174,6.232328 
	C239.628174,6.232328 239.990341,6.169065 239.990341,6.169065 
	C246.841171,6.863688 253.691986,7.558312 260.793274,8.572205 
	C261.028961,37.837955 261.038544,66.784500 260.964294,95.730827 
	C260.956238,98.870415 260.463135,102.008751 259.754639,105.465836 
	C252.208282,103.466827 245.102325,101.149643 237.996368,98.832458 
z"/>
<path fill="#000000" opacity="1.000000" stroke="none" 
	d="
M1746.197876,78.050240 
	C1737.444336,73.429344 1734.218506,65.813011 1733.106079,56.897736 
	C1732.072510,48.611874 1739.821899,36.116596 1747.906860,33.098499 
	C1758.513672,29.138994 1770.537842,31.658619 1776.879517,39.455959 
	C1783.131470,47.142685 1785.530640,58.979126 1779.270752,69.452164 
	C1773.991455,78.284721 1761.669434,82.857323 1750.210693,79.605751 
	C1748.959229,79.250641 1747.776611,78.653587 1746.197876,78.050240 
z"/>
<path fill="#FFA0AD" opacity="1.000000" stroke="none" 
	d="
M239.747864,6.124821 
	C239.990341,6.169065 239.628174,6.232328 239.628174,6.232328 
	C239.628174,6.232328 239.261246,6.222617 239.141006,6.196797 
	C239.020767,6.170977 239.505371,6.080577 239.747864,6.124821 
z"/>
<path fill="#FFB082" opacity="1.000000" stroke="none" 
	d="
M54.239410,320.331024 
	C54.449280,320.266602 54.731525,320.516174 55.241211,320.933441 
	C55.083023,320.949097 54.697403,320.797058 54.239410,320.331024 
z"/>
<path fill="#FFAB8F" opacity="1.000000" stroke="none" 
	d="
M102.980690,371.265015 
	C103.131866,371.194489 103.380058,371.365936 103.795807,371.692017 
	C103.676605,371.721191 103.381393,371.607971 102.980690,371.265015 
z"/>
<path fill="#FF98C2" opacity="1.000000" stroke="none" 
	d="
M315.256104,387.822601 
	C315.232544,387.622375 315.474945,387.439453 315.921265,387.150421 
	C315.913574,387.295471 315.712555,387.560638 315.256104,387.822601 
z"/>
<path fill="#4C6971" opacity="1.000000" stroke="none" 
	d="
M1561.288818,244.648499 
	C1550.073853,217.449814 1550.226074,191.374725 1566.785889,166.535828 
	C1577.267944,150.813232 1599.839966,142.873352 1618.610718,145.505722 
	C1644.433594,149.127045 1660.369873,172.325058 1664.201294,193.261002 
	C1667.270020,210.029739 1666.086060,226.189575 1659.827515,241.774963 
	C1652.489258,260.048828 1634.661133,274.895844 1612.513428,275.156860 
	C1595.378418,275.358765 1581.031982,270.131500 1569.808472,257.179535 
	C1566.604126,253.481583 1564.232910,249.061646 1561.288818,244.648499 
z"/>
<path fill="#4C6971" opacity="1.000000" stroke="none" 
	d="
M878.000000,192.000000 
	C856.551392,192.000000 835.602844,192.000000 813.837280,192.000000 
	C816.783020,174.231339 825.142273,160.625580 840.026428,151.687057 
	C857.767029,141.033142 876.114502,142.250870 893.454407,152.424393 
	C907.835938,160.862183 915.437012,174.117096 916.162415,192.000000 
	C903.309570,192.000000 890.904785,192.000000 878.000000,192.000000 
z"/>
<path fill="#4C6971" opacity="1.000000" stroke="none" 
	d="
M1351.745361,160.754211 
	C1372.225708,139.986633 1406.528198,140.603348 1427.045166,157.480713 
	C1440.324585,168.404434 1446.302856,182.607101 1448.192871,199.402039 
	C1450.360474,218.662827 1447.811279,236.584488 1436.162109,252.478882 
	C1425.779541,266.645020 1411.559204,273.951599 1394.051514,275.011230 
	C1380.018921,275.860535 1367.309326,272.709290 1356.102051,263.748474 
	C1345.294800,255.107407 1339.001587,243.803528 1336.174561,230.629745 
	C1333.060913,216.122101 1333.100464,201.492599 1337.002686,187.034317 
	C1339.667603,177.160522 1344.365356,168.404663 1351.745361,160.754211 
z"/>
<path fill="#FFFFFF" opacity="1.000000" stroke="none" 
	d="
M237.610794,98.724556 
	C245.102325,101.149643 252.208282,103.466827 259.660889,105.870010 
	C270.218567,111.932335 279.079468,119.467941 286.656189,129.009293 
	C293.108459,138.972351 298.284943,149.137909 300.109131,160.720596 
	C303.161591,180.102341 300.701202,198.429871 289.678162,215.507019 
	C283.562195,224.414246 277.675079,233.051605 271.568359,241.530869 
	C267.623474,247.008408 266.324646,253.023819 265.978363,259.682159 
	C265.267761,273.346100 263.933624,286.977600 262.773010,300.998199 
	C259.037811,306.470245 254.160599,309.388977 247.869720,310.100800 
	C246.581985,310.246552 245.385422,311.364777 244.186874,312.100037 
	C241.016037,314.045197 237.867172,316.026184 234.349304,318.095215 
	C225.613678,318.133148 217.238281,318.068817 208.440887,317.969025 
	C205.408005,315.701294 202.848404,313.404144 200.155548,311.275574 
	C199.328461,310.621826 198.142365,310.096954 197.111176,310.079651 
	C190.547913,309.969574 185.949448,306.683136 182.254410,301.168152 
	C181.339905,296.894165 180.330658,292.877838 180.059235,288.812286 
	C179.231659,276.417267 178.846542,263.991272 177.908356,251.606186 
	C177.707855,248.959015 176.284042,246.179932 174.768753,243.896271 
	C168.610275,234.614944 162.196838,225.502777 155.646271,216.103592 
	C150.206573,206.627899 145.729782,197.173737 143.919754,186.503799 
	C140.890503,168.646698 145.175980,152.418747 153.742447,136.954468 
	C154.705109,135.216690 155.721573,133.508713 156.884521,131.498840 
	C164.828461,120.784058 174.119888,112.059158 185.842010,105.567123 
	C195.147888,102.629555 204.185791,99.882248 213.608978,97.019402 
	C221.737915,97.474792 229.481567,98.045723 237.610794,98.724556 
M222.064102,259.005707 
	C212.758621,258.979614 203.448837,259.110229 194.149704,258.853729 
	C190.179825,258.744232 188.775925,260.209961 189.053909,264.034393 
	C189.748642,273.592560 190.424316,283.154999 190.877655,292.726624 
	C191.105057,297.528381 193.481430,299.696228 198.072510,299.685577 
	C206.376923,299.666290 214.681137,299.569153 223.914078,299.651123 
	C231.733337,299.670990 239.552917,299.741272 247.371704,299.690186 
	C251.464661,299.663391 253.893906,297.820251 254.038239,293.374664 
	C254.402496,282.155304 254.901520,270.940277 255.370697,259.114532 
	C244.510895,259.114532 233.753159,259.114532 222.064102,259.005707 
z"/>
<path fill="#FFA2A8" opacity="1.000000" stroke="none" 
	d="
M222.985443,299.504517 
	C214.681137,299.569153 206.376923,299.666290 198.072510,299.685577 
	C193.481430,299.696228 191.105057,297.528381 190.877655,292.726624 
	C190.424316,283.154999 189.748642,273.592560 189.053909,264.034393 
	C188.775925,260.209961 190.179825,258.744232 194.149704,258.853729 
	C203.448837,259.110229 212.758621,258.979614 222.530548,259.521027 
	C222.993134,273.192413 222.989288,286.348480 222.985443,299.504517 
z"/>
<path fill="#FF9FB1" opacity="1.000000" stroke="none" 
	d="
M223.449768,299.577820 
	C222.989288,286.348480 222.993134,273.192413 222.996216,259.575439 
	C233.753159,259.114532 244.510895,259.114532 255.370697,259.114532 
	C254.901520,270.940277 254.402496,282.155304 254.038239,293.374664 
	C253.893906,297.820251 251.464661,299.663391 247.371704,299.690186 
	C239.552917,299.741272 231.733337,299.670990 223.449768,299.577820 
z"/>
</svg>