<?xml version="1.0" encoding="UTF-8"?>
<svg version="1.1" xmlns="http://www.w3.org/2000/svg" width="413" height="413">
<path d="M0 0 C0.76207764 0.60980713 0.76207764 0.60980713 1.53955078 1.23193359 C42.94556035 34.57299383 69.62997952 82.56709054 76.25 135.375 C81.96705902 188.70415936 67.77032414 243.06036405 34 285 C33.59346191 285.50805176 33.18692383 286.01610352 32.76806641 286.53955078 C-0.93187411 328.39125104 -49.24723281 354.81028922 -102.59838867 361.31689453 C-155.91888281 366.7733991 -210.04795381 352.78031703 -252 319 C-252.50805176 318.59346191 -253.01610352 318.18692383 -253.53955078 317.76806641 C-295.41027598 284.05280657 -321.77722942 235.75819219 -328.3190918 182.3972168 C-333.76590148 129.43486023 -319.53030491 75.64155413 -286 34 C-285.59346191 33.49194824 -285.18692383 32.98389648 -284.76806641 32.46044922 C-253.03017971 -6.95459129 -208.76337021 -32.27341162 -159 -41 C-157.71867188 -41.226875 -156.43734375 -41.45375 -155.1171875 -41.6875 C-100.58240587 -49.61983187 -42.93136239 -34.56887479 0 0 Z " fill="#FEA0AB" transform="translate(333,47)"/>
<path d="M0 0 C0.95519531 -0.01611328 1.91039062 -0.03222656 2.89453125 -0.04882812 C9.85637916 -0.05353844 15.89241149 1.16766624 22.5 3.3125 C24.24796875 3.87710938 24.24796875 3.87710938 26.03125 4.453125 C45.84315135 11.85651971 62.10623305 26.29584984 71.5 45.3125 C80.15317322 65.77794142 81.16537707 85.6146379 72.9453125 106.32421875 C69.38314363 114.73875185 64.76524712 122.17229599 59.5 129.625 C58.59000244 130.91676147 58.59000244 130.91676147 57.66162109 132.23461914 C55.1757478 135.72029707 52.6917821 139.09057251 49.890625 142.33203125 C41.79620035 152.1841868 42.86658036 165.15013899 42.5 177.3125 C42.39453465 180.42231521 42.28559363 183.5318172 42.16577148 186.64111328 C42.09891855 188.49181741 42.04790956 190.34319021 42.01586914 192.19482422 C41.81605592 198.99895561 40.62903796 203.79127083 36.125 209.125 C31.30958412 213.13784657 27.71235083 213.5561216 21.5 213.3125 C21.2525 213.910625 21.005 214.50875 20.75 215.125 C18.72423998 218.67008004 16.32005844 220.03914719 12.5 221.3125 C7.94301345 221.65418407 3.38064999 221.68299122 -1.1875 221.75 C-2.44240234 221.79576172 -3.69730469 221.84152344 -4.99023438 221.88867188 C-12.11413535 221.97495398 -16.70409141 221.60385078 -22.15551758 216.80493164 C-23.5 215.3125 -23.5 215.3125 -24.5 213.3125 C-26.39693135 213.07297558 -26.39693135 213.07297558 -28.625 213.0625 C-33.96473631 212.59410208 -37.07960009 210.35823618 -40.5 206.3125 C-44.82214256 199.80685289 -43.71150221 189.87173464 -43.9375 182.375 C-44.21756305 174.84196544 -44.50389869 167.31587577 -45.25 159.8125 C-45.36859375 158.5646875 -45.4871875 157.316875 -45.609375 156.03125 C-47.57613089 147.81918156 -52.82108468 141.27776788 -57.8125 134.625 C-74.0456959 112.52421833 -81.96721466 92.00856609 -79.5 64.3125 C-75.88067074 43.6717532 -62.32619304 25.05767932 -45.4296875 13.1484375 C-31.12197307 3.94323328 -16.91311004 -0.05706177 0 0 Z " fill="#FFFEFE" transform="translate(207.5,95.6875)"/>
<path d="M0 0 C22.11 0 44.22 0 67 0 C65.83870968 37.16129032 65.83870968 37.16129032 62 41 C59.61573792 41.26069641 59.61573792 41.26069641 56.58813477 41.2746582 C55.45678604 41.28419022 54.32543732 41.29372223 53.1598053 41.30354309 C51.93273361 41.30263168 50.70566193 41.30172028 49.44140625 41.30078125 C48.18617661 41.30506638 46.93094696 41.3093515 45.63768005 41.31376648 C42.97860794 41.31951898 40.31992283 41.32093459 37.66088867 41.31567383 C34.25318163 41.30988048 30.84601835 41.32680391 27.43840122 41.3500185 C24.18940678 41.36829349 20.94044287 41.3645706 17.69140625 41.36328125 C15.85383507 41.37709587 15.85383507 41.37709587 13.97914124 41.39118958 C12.84464035 41.38496078 11.71013947 41.37873199 10.54125977 41.37231445 C9.04140282 41.37325859 9.04140282 41.37325859 7.51124573 41.3742218 C5 41 5 41 3.21617126 39.85173035 C-4.09991932 28.71232314 0.41626864 13.32059664 0 0 Z " fill="#FFA1AD" transform="translate(173,258)"/>
</svg>
